<?xml version="1.0" encoding="utf-8"?>
<!-- Generator: Adobe Illustrator 23.0.3, SVG Export Plug-In . SVG Version: 6.00 Build 0)  -->
<svg version="1.1" id="Layer_1" xmlns="http://www.w3.org/2000/svg" xmlns:xlink="http://www.w3.org/1999/xlink" x="0px" y="0px"
	 viewBox="0 0 1200 1200" style="enable-background:new 0 0 1200 1200;" xml:space="preserve">
<style type="text/css">
	.st0{fill:#FEFDBA;}
	.st1{fill:#582503;}
	.st2{fill:#070905;}
	.st3{fill:#F5220B;}
	.st4{fill:none;stroke:#000000;stroke-width:0.2835;stroke-miterlimit:10;}
</style>
<g id="illustration">
	<path class="st0" d="M675.7,203.5c17.2,64.4-102.3,70.4-99.1,5.2C578.9,161.5,659.4,165.7,675.7,203.5z"/>
	<path class="st1" d="M673.7,202.1c-4.9,5-22.6-8.2-27.6-11.7c-12.4-8.5-12.3-12.8-26.8-4.7c-6.5,3.7-30.8,19.5-38.6,16.2
		c-1.5-0.6-11.6-1.8-2.7-6.8c0,0,0,0,0,0c3.5-2.7,5.2-7,8.9-9.3c-1.8-1.1-3.4-1.6-5.3-2.3l0,0c-18.7-4.1-7.8,33.6-25.1,38.2
		c-20.9,5.5-7-34.6-4.2-44.4c3.2-11.4,6.4-18.4,18.9-17.3c13.6,1.2,12.5,13,21.8,16.8c8.6,3.5,25.5-6.6,39.1-5.8
		C645.2,175.1,674.4,185.2,673.7,202.1z"/>
	<path class="st2" d="M611.3,216.7c-0.2,2-1.4,3.8-3.6,4.9c-2.4,1.1-4.7,0.9-6.8-0.7c-2.1-1.6-3.6-3.5-2.4-6.4
		c0.1-0.1,0.1-0.4,0-0.5c-1.5-1.7,0-2.9,0.9-3.9c1-1.2,2.5-1.2,3.9-0.5c0.5,0.3,1.3,0.2,1.9,0.3C608.5,209.9,611.5,213,611.3,216.7z
		"/>
	<path class="st2" d="M643,223c-2.7-2.7-2-7.3,1.5-9.3c0.9-0.5,1.9-0.9,2.8-1c1.5-0.2,3,0,4.6-0.6c1.6-0.7,3.2,1.3,3,3.2
		c-0.1,0.9,0,1.8,0,2.7c0.2,2.3-0.5,4.2-2.4,5.6c-0.3,0.2-0.7,0.5-1,0.7c-1.4,0.6-1.9,0.6-4.2,0.6l-2.7-0.7c-0.5-0.3-0.9-0.7-1.4-1
		l-0.1-0.1C643.2,223.2,643.1,223.1,643,223z"/>
	<path class="st3" d="M630.4,233.1c-1.7,0.1-4.2,0.1-6.9-1.1c-0.7-0.3-1.3-0.6-1.8-1c0.3-0.1,0.7-0.2,1.3-0.3
		c2.2-0.5,3.9-0.3,5.1-0.2c0.5,0,1.9,0.2,3.6,0.6c0.8,0.2,1.5,0.4,2,0.6c-0.2,0-0.5,0-0.7,0.2c-0.1,0.1-0.1,0.2-0.2,0.2
		C631.9,232.5,631,232.8,630.4,233.1z"/>
</g>
<g id="skeleton_1_">
	<polygon class="st4" points="586,273.5 604.7,353.9 648,353.6 665.2,273.5 	"/>
	<polyline class="st4" points="585.6,273.5 547.4,273.5 486.6,275.9 	"/>
	<polyline class="st4" points="665.8,273.4 704.2,273.4 765,275.8 	"/>
	<polyline class="st4" points="604.7,353.9 607.1,413.5 607.1,490.9 	"/>
	<polyline class="st4" points="648,353.6 648,413.5 648,490.9 	"/>
	<polyline class="st4" points="631.5,180 609.7,190.5 593.2,198 579.6,201.1 578.1,208.4 580.3,217.1 582.3,226.6 586.1,236.3 
		593.9,246.3 602.5,255.8 612.5,265.5 626.5,266.7 641.3,263.9 649.3,255.2 656.9,243.6 663.7,232.6 668.5,224 670.5,214.4 
		671.7,204.7 667.2,202.5 662,199 649.4,190.5 631.5,180 	"/>
	<polyline class="st4" points="597.7,208.4 599.7,206.6 602.7,206.1 606.3,206.1 611.1,208.1 	"/>
	<polygon class="st4" points="599.8,215.4 604.3,212.6 608.4,213.6 609,216.7 606.4,218.2 601.3,217.6 	"/>
	<polyline class="st4" points="622.8,227.4 625.3,227.4 628,227.7 628,225.1 628,221.6 628,218.9 628,216.1 	"/>
	<polyline class="st4" points="657.9,210.2 655.9,208.8 652.8,208 649.2,208.2 644.3,209.8 	"/>
	<polygon class="st4" points="653,218.4 651.4,216.6 646.3,217.6 643.8,219.7 646.3,221.2 650.4,221.6 	"/>
	<polyline class="st4" points="633.1,227.4 630.7,227.4 628,227.7 	"/>
	<polygon class="st4" points="622.1,231.1 624.3,230.6 626.4,230.5 627.7,230.7 629.1,230.6 631.1,230.9 633.3,231.6 631.2,232.6 
		628.9,233 627.6,233 626.3,232.9 624.1,232.3 	"/>
	<polyline class="st4" points="622.1,231.1 623.2,231.2 626.4,231.2 627.7,231.3 629,231.3 632.2,231.6 633.3,231.6 	"/>
	<polyline class="st4" points="622.1,231.1 623.2,231.2 626.4,231.7 627.7,231.9 629,231.8 632.2,231.6 633.3,231.6 	"/>
	<circle id="rightShoulder" cx="586" cy="273.4" r="3.1"/>
	<circle id="rightElbow" cx="547.5" cy="273.5" r="3.1"/>
	<circle id="rightWrist" cx="486.7" cy="275.8" r="3.1"/>
	<circle id="rightHip" cx="604.7" cy="353.7" r="3.1"/>
	<circle id="rightKnee" cx="607.1" cy="413.4" r="3.1"/>
	<circle id="rightAnkle" cx="607.1" cy="490.8" r="3.1"/>
	<circle id="leftElbow" cx="704.1" cy="273.3" r="3.1"/>
	<circle id="leftWrist" cx="764.9" cy="275.6" r="3.1"/>
	<circle id="leftHip" cx="648.1" cy="353.4" r="3.1"/>
	<circle id="leftKnee" cx="648.1" cy="413.4" r="3.1"/>
	<circle id="leftAnkle" cx="648.1" cy="490.8" r="3.1"/>
	<circle id="rightEye0" cx="599.8" cy="215.4" r="0.4"/>
	<circle id="rightBrow1" cx="599.7" cy="206.6" r="0.4"/>
	<circle id="rightBrow4" cx="611.1" cy="208.1" r="0.4"/>
	<circle id="nose1" cx="628" cy="218.9" r="0.4"/>
	<circle id="rightBrow3" cx="606.3" cy="206.1" r="0.4"/>
	<circle id="rightEye1" cx="604.3" cy="212.6" r="0.4"/>
	<circle id="rightBrow0" cx="597.7" cy="208.4" r="0.4"/>
	<circle id="rightBrow2" cx="602.7" cy="206.1" r="0.4"/>
	<circle id="rightEye5" cx="601.3" cy="217.6" r="0.4"/>
	<circle id="rightEye2" cx="608.4" cy="213.6" r="0.4"/>
	<circle id="rightEye3" cx="609" cy="216.7" r="0.4"/>
	<circle id="nose0" cx="628" cy="216.1" r="0.4"/>
	<path id="nose3" d="M628,224.7c0.2,0,0.4,0.2,0.4,0.4c0,0.2-0.3-1.6-0.7-1.6s-0.1,1.9-0.1,1.6C627.6,224.9,627.8,224.7,628,224.7z"
		/>
	<circle id="rightNose0" cx="622.8" cy="227.4" r="0.4"/>
	
		<ellipse id="rightMouthCorner" transform="matrix(4.711997e-02 -0.9989 0.9989 4.711997e-02 361.924 841.5641)" cx="622.1" cy="231.1" rx="0.1" ry="0.3"/>
	<circle id="rightNose1" cx="625.3" cy="227.4" r="0.4"/>
	
		<ellipse id="rightUpperLipTop0" transform="matrix(4.711997e-02 -0.9989 0.9989 4.711997e-02 364.5501 843.351)" cx="624.3" cy="230.6" rx="0.1" ry="0.3"/>
	<circle id="nose2" cx="628" cy="221.6" r="0.4"/>
	<circle id="nose4" cx="628" cy="227.7" r="0.4"/>
	
		<ellipse id="upperLipTopMid" transform="matrix(4.711997e-02 -0.9989 0.9989 4.711997e-02 367.6779 846.8826)" cx="627.7" cy="230.7" rx="0.1" ry="0.3"/>
	
		<ellipse id="rightUpperLipTop1" transform="matrix(4.711997e-02 -0.9989 0.9989 4.711997e-02 366.6445 845.3636)" cx="626.4" cy="230.5" rx="0.1" ry="0.3"/>
	<path id="rightMiddleLip" d="M623.2,231.1c0.1,0,0.3,0.1,0.3,0.2c0,0.1-0.1,0.1-0.3,0.1c-0.1,0-0.3-0.1-0.3-0.2
		C623,231.1,623.1,231,623.2,231.1z"/>
	
		<ellipse id="lowerLipBottomMid" transform="matrix(4.711997e-02 -0.9989 0.9989 4.711997e-02 365.2955 848.9498)" cx="627.6" cy="233" rx="0.1" ry="0.3"/>
	
		<ellipse id="upperLipBottomMid" transform="matrix(4.711997e-02 -0.9989 0.9989 4.711997e-02 367.0281 847.4464)" cx="627.7" cy="231.3" rx="0.1" ry="0.3"/>
	
		<ellipse id="lowerLipTopMid" transform="matrix(4.711997e-02 -0.9989 0.9989 4.711997e-02 366.4687 847.9319)" cx="627.7" cy="231.9" rx="0.1" ry="0.3"/>
	
		<ellipse id="rightUpperLipBottom1" transform="matrix(4.711997e-02 -0.9989 0.9989 4.711997e-02 365.9809 846.0572)" cx="626.4" cy="231.2" rx="0.1" ry="0.3"/>
	
		<ellipse id="rightLowerLipTop0" transform="matrix(4.711997e-02 -0.9989 0.9989 4.711997e-02 365.4575 846.5114)" cx="626.4" cy="231.7" rx="0.1" ry="0.3"/>
	
		<ellipse id="rightLowerLipBottom1" transform="matrix(4.711997e-02 -0.9989 0.9989 4.711997e-02 364.1899 847.4934)" cx="626.3" cy="232.9" rx="0.1" ry="0.3"/>
	
		<ellipse id="rightLowerLipBottom0" transform="matrix(4.711997e-02 -0.9989 0.9989 4.711997e-02 362.6536 844.702)" cx="624.1" cy="232.3" rx="0.1" ry="0.3"/>
	<circle id="rightEye4" cx="606.4" cy="218.2" r="0.4"/>
	<circle id="jawMid" cx="626.5" cy="266.7" r="0.8"/>
	<circle id="rightJaw7" cx="612.5" cy="265.5" r="0.8"/>
	<circle id="rightJaw6" cx="602.5" cy="255.8" r="0.8"/>
	<circle id="rightJaw5" cx="593.9" cy="246.3" r="0.8"/>
	<circle id="rightJaw4" cx="586.1" cy="236.3" r="0.8"/>
	<circle id="rightJaw3" cx="582.3" cy="226.6" r="0.8"/>
	<circle id="rightJaw2" cx="580.3" cy="217.1" r="0.8"/>
	<circle id="rightJaw1" cx="578.1" cy="208.4" r="0.8"/>
	<circle id="rightJaw0" cx="579.6" cy="201.1" r="0.8"/>
	<circle id="topMid" cx="631.7" cy="180" r="0.8"/>
	<circle id="leftTop0" cx="649.4" cy="190.5" r="0.8"/>
	<circle id="leftTop1" cx="662" cy="199" r="0.8"/>
	<circle id="leftEye0" cx="653.1" cy="218.4" r="0.4"/>
	<circle id="leftBrow1" cx="656" cy="208.8" r="0.4"/>
	<circle id="leftBrow4" cx="644.4" cy="209.8" r="0.4"/>
	<circle id="leftBrow3" cx="649.3" cy="208.2" r="0.4"/>
	<circle id="leftEye1" cx="651.5" cy="216.6" r="0.4"/>
	<circle id="leftBrow0" cx="658" cy="210.2" r="0.4"/>
	<circle id="leftBrow2" cx="652.9" cy="208" r="0.4"/>
	<circle id="leftEye5" cx="650.5" cy="221.6" r="0.4"/>
	<circle id="leftEye2" cx="646.4" cy="217.6" r="0.4"/>
	<circle id="leftEye3" cx="643.9" cy="219.7" r="0.4"/>
	<circle id="leftNose0" cx="633.1" cy="227.4" r="0.4"/>
	
		<ellipse id="leftMouthCorner" transform="matrix(4.711997e-02 -0.9989 0.9989 4.711997e-02 372.1323 853.3287)" cx="633.3" cy="231.6" rx="0.1" ry="0.3"/>
	<circle id="leftNose1" cx="630.8" cy="227.4" r="0.4"/>
	
		<ellipse id="leftUpperLipTop0" transform="matrix(4.711997e-02 -0.9989 0.9989 4.711997e-02 370.7334 850.4769)" cx="631.1" cy="230.9" rx="0.1" ry="0.3"/>
	
		<ellipse id="leftUpperLipTop1" transform="matrix(4.711997e-02 -0.9989 0.9989 4.711997e-02 369.0653 848.1534)" cx="629.1" cy="230.6" rx="0.1" ry="0.3"/>
	<path id="leftMiddleLip" d="M632.2,231.5c0.1,0,0.3,0.1,0.3,0.2c0,0.1-0.1,0.1-0.3,0.1s-0.3-0.1-0.3-0.2
		C631.9,231.5,632,231.5,632.2,231.5z"/>
	
		<ellipse id="leftUpperLipBottom1" transform="matrix(4.711997e-02 -0.9989 0.9989 4.711997e-02 368.2851 848.7126)" cx="629" cy="231.3" rx="0.1" ry="0.3"/>
	
		<ellipse id="leftLowerLipTop0" transform="matrix(4.711997e-02 -0.9989 0.9989 4.711997e-02 367.7617 849.1668)" cx="629" cy="231.8" rx="0.1" ry="0.3"/>
	
		<ellipse id="leftLowerLipBottom1" transform="matrix(4.711997e-02 -0.9989 0.9989 4.711997e-02 366.6108 850.2833)" cx="629" cy="233" rx="0.1" ry="0.3"/>
	
		<ellipse id="leftLowerLipBottom0" transform="matrix(4.711997e-02 -0.9989 0.9989 4.711997e-02 369.1286 852.1641)" cx="631.2" cy="232.6" rx="0.1" ry="0.3"/>
	<circle id="leftEye4" cx="646.4" cy="221.2" r="0.4"/>
	<circle id="leftJaw7" cx="641.3" cy="263.9" r="0.8"/>
	<circle id="leftJaw6" cx="649.3" cy="255.2" r="0.8"/>
	<circle id="leftJaw5" cx="656.9" cy="243.6" r="0.8"/>
	<circle id="leftJaw4" cx="663.7" cy="232.6" r="0.8"/>
	<circle id="leftJaw3" cx="668.5" cy="224" r="0.8"/>
	<circle id="leftJaw2" cx="670.5" cy="214.4" r="0.8"/>
	<circle id="leftJaw1" cx="671.7" cy="204.7" r="0.8"/>
	<circle id="leftJaw0" cx="667.2" cy="202.5" r="0.8"/>
	<circle id="rightTop0" cx="609.8" cy="190.5" r="0.8"/>
	<circle id="rightTop1" cx="593.2" cy="198" r="0.8"/>
	<circle id="leftShoulder" cx="665.3" cy="273.4" r="3.1"/>
</g>
</svg>
